<?xml version="1.0" encoding="utf-8"?><svg viewBox="0 0 508 508" xmlns="http://www.w3.org/2000/svg" xmlns:xlink="http://www.w3.org/1999/xlink"><style>:root>svg{display:none}:root>svg:target{display:block}</style><svg viewBox="0 0 20 20" id="icon-arrow" xmlns="http://www.w3.org/2000/svg"><path d="M17.344 6.328L10 13.672m0 0L2.656 6.328"/></svg><svg viewBox="0 0 24 24" id="icon-phone" xmlns="http://www.w3.org/2000/svg"><path d="M0 0h24v24H0z"/><path d="M15.5 1h-8A2.5 2.5 0 005 3.5v17A2.5 2.5 0 007.5 23h8a2.5 2.5 0 002.5-2.5v-17A2.5 2.5 0 0015.5 1zm-4 21c-.83 0-1.5-.67-1.5-1.5s.67-1.5 1.5-1.5 1.5.67 1.5 1.5-.67 1.5-1.5 1.5zm4.5-4H7V4h9v14z"/></svg><svg viewBox="0 0 508 508" id="icon-test" xmlns="http://www.w3.org/2000/svg"><g filter="url(#ca)"><circle cx="254" cy="250" r="250" fill-opacity=".1" shape-rendering="crispEdges"/></g><defs><filter id="ca" x="0" y="0" width="508" height="508" filterUnits="userSpaceOnUse" color-interpolation-filters="sRGB"><feFlood flood-opacity="0" result="BackgroundImageFix"/><feColorMatrix in="SourceAlpha" values="0 0 0 0 0 0 0 0 0 0 0 0 0 0 0 0 0 0 127 0" result="hardAlpha"/><feOffset dy="4"/><feGaussianBlur stdDeviation="2"/><feComposite in2="hardAlpha" operator="out"/><feColorMatrix values="0 0 0 0 0.645833 0 0 0 0 0.557742 0 0 0 0 0.0952605 0 0 0 0.52 0"/><feBlend in2="BackgroundImageFix" result="effect1_dropShadow_578_259"/><feBlend in="SourceGraphic" in2="effect1_dropShadow_578_259" result="shape"/></filter></defs></svg></svg>